<svg xmlns="http://www.w3.org/2000/svg" version="1.1" xmlns:xlink="http://www.w3.org/1999/xlink" xmlns:svgjs="http://svgjs.com/svgjs" width="1440" height="560" preserveAspectRatio="none" viewBox="0 0 1440 560"><g mask="url(&quot;#SvgjsMask1014&quot;)" fill="none"><rect width="1440" height="560" x="0" y="0" fill="rgba(30, 48, 67, 1)"></rect><path d="M-98.06 385.58L-98.06 385.58" stroke="rgba(34, 54, 167, 1)" stroke-width="1.5"></path><path d="M-98.06 385.58L-110.94 512.49" stroke="rgba(34, 54, 167, 1)" stroke-width="1.5"></path><path d="M-98.06 385.58L58.72 400.71" stroke="rgba(34, 54, 167, 1)" stroke-width="1.5"></path><path d="M-98.06 385.58L76.56 524.27" stroke="rgba(34, 54, 167, 1)" stroke-width="1.5"></path><path d="M-110.94 512.49L-110.94 512.49" stroke="rgba(34, 54, 167, 1)" stroke-width="1.5"></path><path d="M-110.94 512.49L-108.78 685.4" stroke="rgba(34, 54, 167, 1)" stroke-width="1.5"></path><path d="M-110.94 512.49L76.56 524.27" stroke="rgba(34, 54, 167, 1)" stroke-width="1.5"></path><path d="M-110.94 512.49L58.72 400.71" stroke="rgba(34, 54, 167, 1)" stroke-width="1.5"></path><path d="M-110.94 512.49L77.91 712.08" stroke="rgba(34, 54, 167, 1)" stroke-width="1.5"></path><path d="M-108.78 685.4L-108.78 685.4" stroke="rgba(34, 54, 167, 1)" stroke-width="1.5"></path><path d="M-108.78 685.4L77.91 712.08" stroke="rgba(34, 54, 167, 1)" stroke-width="1.5"></path><path d="M-108.78 685.4L76.56 524.27" stroke="rgba(34, 54, 167, 1)" stroke-width="1.5"></path><path d="M-108.78 685.4L-98.06 385.58" stroke="rgba(34, 54, 167, 1)" stroke-width="1.5"></path><path d="M-108.78 685.4L200.13 661.4" stroke="rgba(34, 54, 167, 1)" stroke-width="1.5"></path><path d="M-108.78 685.4L58.72 400.71" stroke="rgba(34, 54, 167, 1)" stroke-width="1.5"></path><path d="M58.72 400.71L58.72 400.71" stroke="rgba(34, 54, 167, 1)" stroke-width="1.5"></path><path d="M58.72 400.71L76.56 524.27" stroke="rgba(34, 54, 167, 1)" stroke-width="1.5"></path><path d="M58.72 400.71L224.27 508.82" stroke="rgba(34, 54, 167, 1)" stroke-width="1.5"></path><path d="M76.56 524.27L76.56 524.27" stroke="rgba(34, 54, 167, 1)" stroke-width="1.5"></path><path d="M76.56 524.27L224.27 508.82" stroke="rgba(34, 54, 167, 1)" stroke-width="1.5"></path><path d="M77.91 712.08L77.91 712.08" stroke="rgba(34, 54, 167, 1)" stroke-width="1.5"></path><path d="M77.91 712.08L200.13 661.4" stroke="rgba(34, 54, 167, 1)" stroke-width="1.5"></path><path d="M77.91 712.08L76.56 524.27" stroke="rgba(34, 54, 167, 1)" stroke-width="1.5"></path><path d="M77.91 712.08L224.27 508.82" stroke="rgba(34, 54, 167, 1)" stroke-width="1.5"></path><path d="M77.91 712.08L370.77 667.52" stroke="rgba(34, 54, 167, 1)" stroke-width="1.5"></path><path d="M224.27 508.82L224.27 508.82" stroke="rgba(34, 54, 167, 1)" stroke-width="1.5"></path><path d="M224.27 508.82L347.14 557.02" stroke="rgba(34, 54, 167, 1)" stroke-width="1.5"></path><path d="M224.27 508.82L200.13 661.4" stroke="rgba(34, 54, 167, 1)" stroke-width="1.5"></path><path d="M224.27 508.82L379.34 389.72" stroke="rgba(34, 54, 167, 1)" stroke-width="1.5"></path><path d="M224.27 508.82L370.77 667.52" stroke="rgba(34, 54, 167, 1)" stroke-width="1.5"></path><path d="M200.13 661.4L200.13 661.4" stroke="rgba(34, 54, 167, 1)" stroke-width="1.5"></path><path d="M379.34 389.72L379.34 389.72" stroke="rgba(34, 54, 167, 1)" stroke-width="1.5"></path><path d="M379.34 389.72L537.08 353.21" stroke="rgba(34, 54, 167, 1)" stroke-width="1.5"></path><path d="M379.34 389.72L347.14 557.02" stroke="rgba(34, 54, 167, 1)" stroke-width="1.5"></path><path d="M379.34 389.72L514.04 517.52" stroke="rgba(34, 54, 167, 1)" stroke-width="1.5"></path><path d="M379.34 389.72L370.77 667.52" stroke="rgba(34, 54, 167, 1)" stroke-width="1.5"></path><path d="M347.14 557.02L347.14 557.02" stroke="rgba(34, 54, 167, 1)" stroke-width="1.5"></path><path d="M347.14 557.02L370.77 667.52" stroke="rgba(34, 54, 167, 1)" stroke-width="1.5"></path><path d="M347.14 557.02L514.04 517.52" stroke="rgba(34, 54, 167, 1)" stroke-width="1.5"></path><path d="M347.14 557.02L200.13 661.4" stroke="rgba(34, 54, 167, 1)" stroke-width="1.5"></path><path d="M370.77 667.52L370.77 667.52" stroke="rgba(34, 54, 167, 1)" stroke-width="1.5"></path><path d="M370.77 667.52L200.13 661.4" stroke="rgba(34, 54, 167, 1)" stroke-width="1.5"></path><path d="M370.77 667.52L560.52 666.21" stroke="rgba(34, 54, 167, 1)" stroke-width="1.5"></path><path d="M537.08 353.21L537.08 353.21" stroke="rgba(34, 54, 167, 1)" stroke-width="1.5"></path><path d="M537.08 353.21L675.72 386.73" stroke="rgba(34, 54, 167, 1)" stroke-width="1.5"></path><path d="M537.08 353.21L514.04 517.52" stroke="rgba(34, 54, 167, 1)" stroke-width="1.5"></path><path d="M537.08 353.21L659.04 542.86" stroke="rgba(34, 54, 167, 1)" stroke-width="1.5"></path><path d="M537.08 353.21L347.14 557.02" stroke="rgba(34, 54, 167, 1)" stroke-width="1.5"></path><path d="M537.08 353.21L810.25 230.67" stroke="rgba(34, 54, 167, 1)" stroke-width="1.5"></path><path d="M514.04 517.52L514.04 517.52" stroke="rgba(34, 54, 167, 1)" stroke-width="1.5"></path><path d="M514.04 517.52L659.04 542.86" stroke="rgba(34, 54, 167, 1)" stroke-width="1.5"></path><path d="M514.04 517.52L560.52 666.21" stroke="rgba(34, 54, 167, 1)" stroke-width="1.5"></path><path d="M560.52 666.21L560.52 666.21" stroke="rgba(34, 54, 167, 1)" stroke-width="1.5"></path><path d="M560.52 666.21L681.89 699.74" stroke="rgba(34, 54, 167, 1)" stroke-width="1.5"></path><path d="M560.52 666.21L659.04 542.86" stroke="rgba(34, 54, 167, 1)" stroke-width="1.5"></path><path d="M675.72 386.73L675.72 386.73" stroke="rgba(34, 54, 167, 1)" stroke-width="1.5"></path><path d="M675.72 386.73L659.04 542.86" stroke="rgba(34, 54, 167, 1)" stroke-width="1.5"></path><path d="M675.72 386.73L846.16 386.53" stroke="rgba(34, 54, 167, 1)" stroke-width="1.5"></path><path d="M659.04 542.86L659.04 542.86" stroke="rgba(34, 54, 167, 1)" stroke-width="1.5"></path><path d="M659.04 542.86L681.89 699.74" stroke="rgba(34, 54, 167, 1)" stroke-width="1.5"></path><path d="M659.04 542.86L828.05 529.68" stroke="rgba(34, 54, 167, 1)" stroke-width="1.5"></path><path d="M659.04 542.86L833.03 685.71" stroke="rgba(34, 54, 167, 1)" stroke-width="1.5"></path><path d="M681.89 699.74L681.89 699.74" stroke="rgba(34, 54, 167, 1)" stroke-width="1.5"></path><path d="M681.89 699.74L833.03 685.71" stroke="rgba(34, 54, 167, 1)" stroke-width="1.5"></path><path d="M810.25 230.67L810.25 230.67" stroke="rgba(34, 54, 167, 1)" stroke-width="1.5"></path><path d="M810.25 230.67L846.16 386.53" stroke="rgba(34, 54, 167, 1)" stroke-width="1.5"></path><path d="M810.25 230.67L988.43 253.85" stroke="rgba(34, 54, 167, 1)" stroke-width="1.5"></path><path d="M810.25 230.67L675.72 386.73" stroke="rgba(34, 54, 167, 1)" stroke-width="1.5"></path><path d="M810.25 230.67L991.56 352.31" stroke="rgba(34, 54, 167, 1)" stroke-width="1.5"></path><path d="M846.16 386.53L846.16 386.53" stroke="rgba(34, 54, 167, 1)" stroke-width="1.5"></path><path d="M846.16 386.53L828.05 529.68" stroke="rgba(34, 54, 167, 1)" stroke-width="1.5"></path><path d="M846.16 386.53L991.56 352.31" stroke="rgba(34, 54, 167, 1)" stroke-width="1.5"></path><path d="M846.16 386.53L944.36 507.12" stroke="rgba(34, 54, 167, 1)" stroke-width="1.5"></path><path d="M828.05 529.68L828.05 529.68" stroke="rgba(34, 54, 167, 1)" stroke-width="1.5"></path><path d="M828.05 529.68L944.36 507.12" stroke="rgba(34, 54, 167, 1)" stroke-width="1.5"></path><path d="M833.03 685.71L833.03 685.71" stroke="rgba(34, 54, 167, 1)" stroke-width="1.5"></path><path d="M833.03 685.71L828.05 529.68" stroke="rgba(34, 54, 167, 1)" stroke-width="1.5"></path><path d="M833.03 685.71L1009.34 704.08" stroke="rgba(34, 54, 167, 1)" stroke-width="1.5"></path><path d="M988.63 -96.49L988.63 -96.49" stroke="rgba(34, 54, 167, 1)" stroke-width="1.5"></path><path d="M988.63 -96.49L1107.9 -105.98" stroke="rgba(34, 54, 167, 1)" stroke-width="1.5"></path><path d="M988.63 -96.49L969.66 66.92" stroke="rgba(34, 54, 167, 1)" stroke-width="1.5"></path><path d="M988.63 -96.49L1149.2 59.31" stroke="rgba(34, 54, 167, 1)" stroke-width="1.5"></path><path d="M988.63 -96.49L1237.74 -99.12" stroke="rgba(34, 54, 167, 1)" stroke-width="1.5"></path><path d="M988.63 -96.49L1286.36 75.74" stroke="rgba(34, 54, 167, 1)" stroke-width="1.5"></path><path d="M988.63 -96.49L988.43 253.85" stroke="rgba(34, 54, 167, 1)" stroke-width="1.5"></path><path d="M969.66 66.92L969.66 66.92" stroke="rgba(34, 54, 167, 1)" stroke-width="1.5"></path><path d="M969.66 66.92L1149.2 59.31" stroke="rgba(34, 54, 167, 1)" stroke-width="1.5"></path><path d="M969.66 66.92L988.43 253.85" stroke="rgba(34, 54, 167, 1)" stroke-width="1.5"></path><path d="M988.43 253.85L988.43 253.85" stroke="rgba(34, 54, 167, 1)" stroke-width="1.5"></path><path d="M988.43 253.85L991.56 352.31" stroke="rgba(34, 54, 167, 1)" stroke-width="1.5"></path><path d="M991.56 352.31L991.56 352.31" stroke="rgba(34, 54, 167, 1)" stroke-width="1.5"></path><path d="M944.36 507.12L944.36 507.12" stroke="rgba(34, 54, 167, 1)" stroke-width="1.5"></path><path d="M944.36 507.12L991.56 352.31" stroke="rgba(34, 54, 167, 1)" stroke-width="1.5"></path><path d="M944.36 507.12L1110.1 523.78" stroke="rgba(34, 54, 167, 1)" stroke-width="1.5"></path><path d="M944.36 507.12L1009.34 704.08" stroke="rgba(34, 54, 167, 1)" stroke-width="1.5"></path><path d="M1009.34 704.08L1009.34 704.08" stroke="rgba(34, 54, 167, 1)" stroke-width="1.5"></path><path d="M1009.34 704.08L1132.72 689.23" stroke="rgba(34, 54, 167, 1)" stroke-width="1.5"></path><path d="M1009.34 704.08L1110.1 523.78" stroke="rgba(34, 54, 167, 1)" stroke-width="1.5"></path><path d="M1107.9 -105.98L1107.9 -105.98" stroke="rgba(34, 54, 167, 1)" stroke-width="1.5"></path><path d="M1107.9 -105.98L1237.74 -99.12" stroke="rgba(34, 54, 167, 1)" stroke-width="1.5"></path><path d="M1107.9 -105.98L1149.2 59.31" stroke="rgba(34, 54, 167, 1)" stroke-width="1.5"></path><path d="M1107.9 -105.98L969.66 66.92" stroke="rgba(34, 54, 167, 1)" stroke-width="1.5"></path><path d="M1149.2 59.31L1149.2 59.31" stroke="rgba(34, 54, 167, 1)" stroke-width="1.5"></path><path d="M1149.2 59.31L1286.36 75.74" stroke="rgba(34, 54, 167, 1)" stroke-width="1.5"></path><path d="M1149.2 59.31L1237.74 -99.12" stroke="rgba(34, 54, 167, 1)" stroke-width="1.5"></path><path d="M1158.2 347.36L1158.2 347.36" stroke="rgba(34, 54, 167, 1)" stroke-width="1.5"></path><path d="M1158.2 347.36L1272.35 387.02" stroke="rgba(34, 54, 167, 1)" stroke-width="1.5"></path><path d="M1158.2 347.36L991.56 352.31" stroke="rgba(34, 54, 167, 1)" stroke-width="1.5"></path><path d="M1110.1 523.78L1110.1 523.78" stroke="rgba(34, 54, 167, 1)" stroke-width="1.5"></path><path d="M1110.1 523.78L1132.72 689.23" stroke="rgba(34, 54, 167, 1)" stroke-width="1.5"></path><path d="M1132.72 689.23L1132.72 689.23" stroke="rgba(34, 54, 167, 1)" stroke-width="1.5"></path><path d="M1132.72 689.23L1270.39 668.43" stroke="rgba(34, 54, 167, 1)" stroke-width="1.5"></path><path d="M1132.72 689.23L1296.14 512.31" stroke="rgba(34, 54, 167, 1)" stroke-width="1.5"></path><path d="M1132.72 689.23L1392.13 710.95" stroke="rgba(34, 54, 167, 1)" stroke-width="1.5"></path><path d="M1237.74 -99.12L1237.74 -99.12" stroke="rgba(34, 54, 167, 1)" stroke-width="1.5"></path><path d="M1237.74 -99.12L1286.36 75.74" stroke="rgba(34, 54, 167, 1)" stroke-width="1.5"></path><path d="M1237.74 -99.12L1447.16 -74.37" stroke="rgba(34, 54, 167, 1)" stroke-width="1.5"></path><path d="M1286.36 75.74L1286.36 75.74" stroke="rgba(34, 54, 167, 1)" stroke-width="1.5"></path><path d="M1286.36 75.74L1456.99 43.53" stroke="rgba(34, 54, 167, 1)" stroke-width="1.5"></path><path d="M1272.35 387.02L1272.35 387.02" stroke="rgba(34, 54, 167, 1)" stroke-width="1.5"></path><path d="M1272.35 387.02L1296.14 512.31" stroke="rgba(34, 54, 167, 1)" stroke-width="1.5"></path><path d="M1272.35 387.02L1410.3 356.59" stroke="rgba(34, 54, 167, 1)" stroke-width="1.5"></path><path d="M1272.35 387.02L1448.79 495.26" stroke="rgba(34, 54, 167, 1)" stroke-width="1.5"></path><path d="M1272.35 387.02L1110.1 523.78" stroke="rgba(34, 54, 167, 1)" stroke-width="1.5"></path><path d="M1296.14 512.31L1296.14 512.31" stroke="rgba(34, 54, 167, 1)" stroke-width="1.5"></path><path d="M1296.14 512.31L1448.79 495.26" stroke="rgba(34, 54, 167, 1)" stroke-width="1.5"></path><path d="M1296.14 512.31L1270.39 668.43" stroke="rgba(34, 54, 167, 1)" stroke-width="1.5"></path><path d="M1296.14 512.31L1110.1 523.78" stroke="rgba(34, 54, 167, 1)" stroke-width="1.5"></path><path d="M1270.39 668.43L1270.39 668.43" stroke="rgba(34, 54, 167, 1)" stroke-width="1.5"></path><path d="M1270.39 668.43L1392.13 710.95" stroke="rgba(34, 54, 167, 1)" stroke-width="1.5"></path><path d="M1270.39 668.43L1110.1 523.78" stroke="rgba(34, 54, 167, 1)" stroke-width="1.5"></path><path d="M1270.39 668.43L1448.79 495.26" stroke="rgba(34, 54, 167, 1)" stroke-width="1.5"></path><path d="M1270.39 668.43L1009.34 704.08" stroke="rgba(34, 54, 167, 1)" stroke-width="1.5"></path><path d="M1447.16 -74.37L1447.16 -74.37" stroke="rgba(34, 54, 167, 1)" stroke-width="1.5"></path><path d="M1447.16 -74.37L1456.99 43.53" stroke="rgba(34, 54, 167, 1)" stroke-width="1.5"></path><path d="M1447.16 -74.37L1599.4 -103.15" stroke="rgba(34, 54, 167, 1)" stroke-width="1.5"></path><path d="M1447.16 -74.37L1286.36 75.74" stroke="rgba(34, 54, 167, 1)" stroke-width="1.5"></path><path d="M1447.16 -74.37L1454.49 199.38" stroke="rgba(34, 54, 167, 1)" stroke-width="1.5"></path><path d="M1456.99 43.53L1456.99 43.53" stroke="rgba(34, 54, 167, 1)" stroke-width="1.5"></path><path d="M1454.49 199.38L1454.49 199.38" stroke="rgba(34, 54, 167, 1)" stroke-width="1.5"></path><path d="M1454.49 199.38L1584.13 223.74" stroke="rgba(34, 54, 167, 1)" stroke-width="1.5"></path><path d="M1454.49 199.38L1456.99 43.53" stroke="rgba(34, 54, 167, 1)" stroke-width="1.5"></path><path d="M1454.49 199.38L1410.3 356.59" stroke="rgba(34, 54, 167, 1)" stroke-width="1.5"></path><path d="M1454.49 199.38L1555.64 354.27" stroke="rgba(34, 54, 167, 1)" stroke-width="1.5"></path><path d="M1454.49 199.38L1286.36 75.74" stroke="rgba(34, 54, 167, 1)" stroke-width="1.5"></path><path d="M1454.49 199.38L1272.35 387.02" stroke="rgba(34, 54, 167, 1)" stroke-width="1.5"></path><path d="M1410.3 356.59L1410.3 356.59" stroke="rgba(34, 54, 167, 1)" stroke-width="1.5"></path><path d="M1410.3 356.59L1448.79 495.26" stroke="rgba(34, 54, 167, 1)" stroke-width="1.5"></path><path d="M1448.79 495.26L1448.79 495.26" stroke="rgba(34, 54, 167, 1)" stroke-width="1.5"></path><path d="M1448.79 495.26L1563.26 498.37" stroke="rgba(34, 54, 167, 1)" stroke-width="1.5"></path><path d="M1392.13 710.95L1392.13 710.95" stroke="rgba(34, 54, 167, 1)" stroke-width="1.5"></path><path d="M1392.13 710.95L1601.12 668.37" stroke="rgba(34, 54, 167, 1)" stroke-width="1.5"></path><path d="M1599.4 -103.15L1599.4 -103.15" stroke="rgba(34, 54, 167, 1)" stroke-width="1.5"></path><path d="M1599.4 -103.15L1456.99 43.53" stroke="rgba(34, 54, 167, 1)" stroke-width="1.5"></path><path d="M1599.4 -103.15L1584.13 223.74" stroke="rgba(34, 54, 167, 1)" stroke-width="1.5"></path><path d="M1599.4 -103.15L1454.49 199.38" stroke="rgba(34, 54, 167, 1)" stroke-width="1.5"></path><path d="M1599.4 -103.15L1286.36 75.74" stroke="rgba(34, 54, 167, 1)" stroke-width="1.5"></path><path d="M1584.13 223.74L1584.13 223.74" stroke="rgba(34, 54, 167, 1)" stroke-width="1.5"></path><path d="M1584.13 223.74L1555.64 354.27" stroke="rgba(34, 54, 167, 1)" stroke-width="1.5"></path><path d="M1584.13 223.74L1410.3 356.59" stroke="rgba(34, 54, 167, 1)" stroke-width="1.5"></path><path d="M1555.64 354.27L1555.64 354.27" stroke="rgba(34, 54, 167, 1)" stroke-width="1.5"></path><path d="M1555.64 354.27L1563.26 498.37" stroke="rgba(34, 54, 167, 1)" stroke-width="1.5"></path><path d="M1563.26 498.37L1563.26 498.37" stroke="rgba(34, 54, 167, 1)" stroke-width="1.5"></path><path d="M1563.26 498.37L1601.12 668.37" stroke="rgba(34, 54, 167, 1)" stroke-width="1.5"></path><path d="M1563.26 498.37L1410.3 356.59" stroke="rgba(34, 54, 167, 1)" stroke-width="1.5"></path><path d="M1601.12 668.37L1601.12 668.37" stroke="rgba(34, 54, 167, 1)" stroke-width="1.5"></path><path d="M1601.12 668.37L1448.79 495.26" stroke="rgba(34, 54, 167, 1)" stroke-width="1.5"></path><path d="M1601.12 668.37L1555.64 354.27" stroke="rgba(34, 54, 167, 1)" stroke-width="1.5"></path><path d="M1601.12 668.37L1270.39 668.43" stroke="rgba(34, 54, 167, 1)" stroke-width="1.5"></path><circle r="5" cx="-98.06" cy="385.58" fill="rgba(34, 54, 167, 1)"></circle><circle r="5" cx="-110.94" cy="512.49" fill="rgba(34, 54, 167, 1)"></circle><circle r="5" cx="-108.78" cy="685.4" fill="rgba(34, 54, 167, 1)"></circle><circle r="5" cx="58.72" cy="400.71" fill="rgba(34, 54, 167, 1)"></circle><circle r="5" cx="76.56" cy="524.27" fill="rgba(34, 54, 167, 1)"></circle><circle r="5" cx="77.91" cy="712.08" fill="rgba(34, 54, 167, 1)"></circle><circle r="5" cx="224.27" cy="508.82" fill="rgba(34, 54, 167, 1)"></circle><circle r="5" cx="200.13" cy="661.4" fill="rgba(34, 54, 167, 1)"></circle><circle r="5" cx="379.34" cy="389.72" fill="rgba(34, 54, 167, 1)"></circle><circle r="5" cx="347.14" cy="557.02" fill="rgba(34, 54, 167, 1)"></circle><circle r="5" cx="370.77" cy="667.52" fill="rgba(34, 54, 167, 1)"></circle><circle r="5" cx="537.08" cy="353.21" fill="rgba(34, 54, 167, 1)"></circle><circle r="5" cx="514.04" cy="517.52" fill="rgba(34, 54, 167, 1)"></circle><circle r="5" cx="560.52" cy="666.21" fill="rgba(34, 54, 167, 1)"></circle><circle r="5" cx="675.72" cy="386.73" fill="rgba(34, 54, 167, 1)"></circle><circle r="5" cx="659.04" cy="542.86" fill="rgba(34, 54, 167, 1)"></circle><circle r="5" cx="681.89" cy="699.74" fill="rgba(34, 54, 167, 1)"></circle><circle r="5" cx="810.25" cy="230.67" fill="rgba(34, 54, 167, 1)"></circle><circle r="5" cx="846.16" cy="386.53" fill="rgba(34, 54, 167, 1)"></circle><circle r="5" cx="828.05" cy="529.68" fill="rgba(34, 54, 167, 1)"></circle><circle r="5" cx="833.03" cy="685.71" fill="rgba(34, 54, 167, 1)"></circle><circle r="5" cx="988.63" cy="-96.49" fill="rgba(34, 54, 167, 1)"></circle><circle r="5" cx="969.66" cy="66.92" fill="rgba(34, 54, 167, 1)"></circle><circle r="5" cx="988.43" cy="253.85" fill="rgba(34, 54, 167, 1)"></circle><circle r="5" cx="991.56" cy="352.31" fill="rgba(34, 54, 167, 1)"></circle><circle r="5" cx="944.36" cy="507.12" fill="rgba(34, 54, 167, 1)"></circle><circle r="5" cx="1009.34" cy="704.08" fill="rgba(34, 54, 167, 1)"></circle><circle r="5" cx="1107.9" cy="-105.98" fill="rgba(34, 54, 167, 1)"></circle><circle r="5" cx="1149.2" cy="59.31" fill="rgba(34, 54, 167, 1)"></circle><circle r="5" cx="1158.2" cy="347.36" fill="rgba(34, 54, 167, 1)"></circle><circle r="5" cx="1110.1" cy="523.78" fill="rgba(34, 54, 167, 1)"></circle><circle r="5" cx="1132.72" cy="689.23" fill="rgba(34, 54, 167, 1)"></circle><circle r="5" cx="1237.74" cy="-99.12" fill="rgba(34, 54, 167, 1)"></circle><circle r="5" cx="1286.36" cy="75.74" fill="rgba(34, 54, 167, 1)"></circle><circle r="5" cx="1272.35" cy="387.02" fill="rgba(34, 54, 167, 1)"></circle><circle r="5" cx="1296.14" cy="512.31" fill="rgba(34, 54, 167, 1)"></circle><circle r="5" cx="1270.39" cy="668.43" fill="rgba(34, 54, 167, 1)"></circle><circle r="5" cx="1447.16" cy="-74.37" fill="rgba(34, 54, 167, 1)"></circle><circle r="5" cx="1456.99" cy="43.53" fill="rgba(34, 54, 167, 1)"></circle><circle r="5" cx="1454.49" cy="199.38" fill="rgba(34, 54, 167, 1)"></circle><circle r="5" cx="1410.3" cy="356.59" fill="rgba(34, 54, 167, 1)"></circle><circle r="5" cx="1448.79" cy="495.26" fill="rgba(34, 54, 167, 1)"></circle><circle r="5" cx="1392.13" cy="710.95" fill="rgba(34, 54, 167, 1)"></circle><circle r="5" cx="1599.4" cy="-103.15" fill="rgba(34, 54, 167, 1)"></circle><circle r="5" cx="1584.13" cy="223.74" fill="rgba(34, 54, 167, 1)"></circle><circle r="5" cx="1555.64" cy="354.27" fill="rgba(34, 54, 167, 1)"></circle><circle r="5" cx="1563.26" cy="498.37" fill="rgba(34, 54, 167, 1)"></circle><circle r="5" cx="1601.12" cy="668.37" fill="rgba(34, 54, 167, 1)"></circle><path d="M346.36 524.88L346.36 524.88" stroke="hsl(329.6, 90.4%, 64%)" stroke-width="1.5"></path><path d="M346.36 524.88L368.04 664.58" stroke="hsl(329.6, 90.4%, 64%)" stroke-width="1.5"></path><path d="M346.36 524.88L189.93 488.3" stroke="hsl(329.6, 90.4%, 64%)" stroke-width="1.5"></path><path d="M346.36 524.88L231.16 687" stroke="hsl(329.6, 90.4%, 64%)" stroke-width="1.5"></path><path d="M519.04 645.35L519.04 645.35" stroke="hsl(329.6, 90.4%, 64%)" stroke-width="1.5"></path><path d="M519.04 645.35L664.39 689.74" stroke="hsl(329.6, 90.4%, 64%)" stroke-width="1.5"></path><path d="M519.04 645.35L368.04 664.58" stroke="hsl(329.6, 90.4%, 64%)" stroke-width="1.5"></path><path d="M519.04 645.35L658.53 519.05" stroke="hsl(329.6, 90.4%, 64%)" stroke-width="1.5"></path><path d="M519.04 645.35L346.36 524.88" stroke="hsl(329.6, 90.4%, 64%)" stroke-width="1.5"></path><path d="M519.04 645.35L555.42 406.53" stroke="hsl(329.6, 90.4%, 64%)" stroke-width="1.5"></path><path d="M519.04 645.35L231.16 687" stroke="hsl(329.6, 90.4%, 64%)" stroke-width="1.5"></path><path d="M1262.24 201.41L1262.24 201.41" stroke="hsl(329.6, 90.4%, 64%)" stroke-width="1.5"></path><path d="M1262.24 201.41L1162.29 220.05" stroke="hsl(329.6, 90.4%, 64%)" stroke-width="1.5"></path><path d="M1262.24 201.41L1308.45 107.31" stroke="hsl(329.6, 90.4%, 64%)" stroke-width="1.5"></path><path d="M1296.21 365.32L1296.21 365.32" stroke="hsl(329.6, 90.4%, 64%)" stroke-width="1.5"></path><path d="M1296.21 365.32L1402.19 337.97" stroke="hsl(329.6, 90.4%, 64%)" stroke-width="1.5"></path><path d="M1296.21 365.32L1142.99 350.53" stroke="hsl(329.6, 90.4%, 64%)" stroke-width="1.5"></path><path d="M1296.21 365.32L1262.24 201.41" stroke="hsl(329.6, 90.4%, 64%)" stroke-width="1.5"></path><path d="M1426.02 523.85L1426.02 523.85" stroke="hsl(329.6, 90.4%, 64%)" stroke-width="1.5"></path><path d="M1426.02 523.85L1400.68 658.81" stroke="hsl(329.6, 90.4%, 64%)" stroke-width="1.5"></path><path d="M1426.02 523.85L1272.93 557.07" stroke="hsl(329.6, 90.4%, 64%)" stroke-width="1.5"></path><path d="M1426.02 523.85L1402.19 337.97" stroke="hsl(329.6, 90.4%, 64%)" stroke-width="1.5"></path><path d="M1426.02 523.85L1566.3 658.51" stroke="hsl(329.6, 90.4%, 64%)" stroke-width="1.5"></path><path d="M1426.02 523.85L1296.21 365.32" stroke="hsl(329.6, 90.4%, 64%)" stroke-width="1.5"></path><path d="M1566.3 658.51L1566.3 658.51" stroke="hsl(329.6, 90.4%, 64%)" stroke-width="1.5"></path><path d="M1566.3 658.51L1400.68 658.81" stroke="hsl(329.6, 90.4%, 64%)" stroke-width="1.5"></path><path d="M1566.3 658.51L1294.41 692.85" stroke="hsl(329.6, 90.4%, 64%)" stroke-width="1.5"></path><path d="M1566.3 658.51L1272.93 557.07" stroke="hsl(329.6, 90.4%, 64%)" stroke-width="1.5"></path><path d="M-104.67 535L-104.67 535" stroke="hsl(329.6, 90.4%, 64%)" stroke-width="1.5"></path><path d="M-104.67 535L-110.35 674.22" stroke="hsl(329.6, 90.4%, 64%)" stroke-width="1.5"></path><path d="M-104.67 535L57.05 541.88" stroke="hsl(329.6, 90.4%, 64%)" stroke-width="1.5"></path><path d="M-104.67 535L77.28 681.93" stroke="hsl(329.6, 90.4%, 64%)" stroke-width="1.5"></path><path d="M-104.67 535L189.93 488.3" stroke="hsl(329.6, 90.4%, 64%)" stroke-width="1.5"></path><path d="M-104.67 535L231.16 687" stroke="hsl(329.6, 90.4%, 64%)" stroke-width="1.5"></path><path d="M-104.67 535L346.36 524.88" stroke="hsl(329.6, 90.4%, 64%)" stroke-width="1.5"></path><path d="M-110.35 674.22L-110.35 674.22" stroke="hsl(329.6, 90.4%, 64%)" stroke-width="1.5"></path><path d="M-110.35 674.22L77.28 681.93" stroke="hsl(329.6, 90.4%, 64%)" stroke-width="1.5"></path><path d="M-110.35 674.22L57.05 541.88" stroke="hsl(329.6, 90.4%, 64%)" stroke-width="1.5"></path><path d="M-110.35 674.22L231.16 687" stroke="hsl(329.6, 90.4%, 64%)" stroke-width="1.5"></path><path d="M-110.35 674.22L189.93 488.3" stroke="hsl(329.6, 90.4%, 64%)" stroke-width="1.5"></path><path d="M-110.35 674.22L368.04 664.58" stroke="hsl(329.6, 90.4%, 64%)" stroke-width="1.5"></path><path d="M57.05 541.88L57.05 541.88" stroke="hsl(329.6, 90.4%, 64%)" stroke-width="1.5"></path><path d="M57.05 541.88L77.28 681.93" stroke="hsl(329.6, 90.4%, 64%)" stroke-width="1.5"></path><path d="M57.05 541.88L189.93 488.3" stroke="hsl(329.6, 90.4%, 64%)" stroke-width="1.5"></path><path d="M77.28 681.93L77.28 681.93" stroke="hsl(329.6, 90.4%, 64%)" stroke-width="1.5"></path><path d="M77.28 681.93L231.16 687" stroke="hsl(329.6, 90.4%, 64%)" stroke-width="1.5"></path><path d="M77.28 681.93L189.93 488.3" stroke="hsl(329.6, 90.4%, 64%)" stroke-width="1.5"></path><path d="M189.93 488.3L189.93 488.3" stroke="hsl(329.6, 90.4%, 64%)" stroke-width="1.5"></path><path d="M189.93 488.3L231.16 687" stroke="hsl(329.6, 90.4%, 64%)" stroke-width="1.5"></path><path d="M231.16 687L231.16 687" stroke="hsl(329.6, 90.4%, 64%)" stroke-width="1.5"></path><path d="M231.16 687L368.04 664.58" stroke="hsl(329.6, 90.4%, 64%)" stroke-width="1.5"></path><path d="M231.16 687L57.05 541.88" stroke="hsl(329.6, 90.4%, 64%)" stroke-width="1.5"></path><path d="M368.04 664.58L368.04 664.58" stroke="hsl(329.6, 90.4%, 64%)" stroke-width="1.5"></path><path d="M368.04 664.58L189.93 488.3" stroke="hsl(329.6, 90.4%, 64%)" stroke-width="1.5"></path><path d="M368.04 664.58L77.28 681.93" stroke="hsl(329.6, 90.4%, 64%)" stroke-width="1.5"></path><path d="M368.04 664.58L664.39 689.74" stroke="hsl(329.6, 90.4%, 64%)" stroke-width="1.5"></path><path d="M555.42 406.53L555.42 406.53" stroke="hsl(329.6, 90.4%, 64%)" stroke-width="1.5"></path><path d="M555.42 406.53L658.53 519.05" stroke="hsl(329.6, 90.4%, 64%)" stroke-width="1.5"></path><path d="M555.42 406.53L346.36 524.88" stroke="hsl(329.6, 90.4%, 64%)" stroke-width="1.5"></path><path d="M555.42 406.53L796.53 348.94" stroke="hsl(329.6, 90.4%, 64%)" stroke-width="1.5"></path><path d="M555.42 406.53L823.66 546.91" stroke="hsl(329.6, 90.4%, 64%)" stroke-width="1.5"></path><path d="M658.53 519.05L658.53 519.05" stroke="hsl(329.6, 90.4%, 64%)" stroke-width="1.5"></path><path d="M658.53 519.05L823.66 546.91" stroke="hsl(329.6, 90.4%, 64%)" stroke-width="1.5"></path><path d="M658.53 519.05L664.39 689.74" stroke="hsl(329.6, 90.4%, 64%)" stroke-width="1.5"></path><path d="M664.39 689.74L664.39 689.74" stroke="hsl(329.6, 90.4%, 64%)" stroke-width="1.5"></path><path d="M664.39 689.74L852.17 656.36" stroke="hsl(329.6, 90.4%, 64%)" stroke-width="1.5"></path><path d="M664.39 689.74L823.66 546.91" stroke="hsl(329.6, 90.4%, 64%)" stroke-width="1.5"></path><path d="M664.39 689.74L961.43 693.54" stroke="hsl(329.6, 90.4%, 64%)" stroke-width="1.5"></path><path d="M796.53 348.94L796.53 348.94" stroke="hsl(329.6, 90.4%, 64%)" stroke-width="1.5"></path><path d="M796.53 348.94L823.66 546.91" stroke="hsl(329.6, 90.4%, 64%)" stroke-width="1.5"></path><path d="M796.53 348.94L1010.56 381.71" stroke="hsl(329.6, 90.4%, 64%)" stroke-width="1.5"></path><path d="M796.53 348.94L658.53 519.05" stroke="hsl(329.6, 90.4%, 64%)" stroke-width="1.5"></path><path d="M823.66 546.91L823.66 546.91" stroke="hsl(329.6, 90.4%, 64%)" stroke-width="1.5"></path><path d="M823.66 546.91L852.17 656.36" stroke="hsl(329.6, 90.4%, 64%)" stroke-width="1.5"></path><path d="M823.66 546.91L961.43 693.54" stroke="hsl(329.6, 90.4%, 64%)" stroke-width="1.5"></path><path d="M852.17 656.36L852.17 656.36" stroke="hsl(329.6, 90.4%, 64%)" stroke-width="1.5"></path><path d="M852.17 656.36L961.43 693.54" stroke="hsl(329.6, 90.4%, 64%)" stroke-width="1.5"></path><path d="M852.17 656.36L658.53 519.05" stroke="hsl(329.6, 90.4%, 64%)" stroke-width="1.5"></path><path d="M852.17 656.36L1133.5 670.33" stroke="hsl(329.6, 90.4%, 64%)" stroke-width="1.5"></path><path d="M852.17 656.36L1115.85 500.28" stroke="hsl(329.6, 90.4%, 64%)" stroke-width="1.5"></path><path d="M1010.56 381.71L1010.56 381.71" stroke="hsl(329.6, 90.4%, 64%)" stroke-width="1.5"></path><path d="M1010.56 381.71L1142.99 350.53" stroke="hsl(329.6, 90.4%, 64%)" stroke-width="1.5"></path><path d="M1010.56 381.71L1115.85 500.28" stroke="hsl(329.6, 90.4%, 64%)" stroke-width="1.5"></path><path d="M961.43 693.54L961.43 693.54" stroke="hsl(329.6, 90.4%, 64%)" stroke-width="1.5"></path><path d="M961.43 693.54L1133.5 670.33" stroke="hsl(329.6, 90.4%, 64%)" stroke-width="1.5"></path><path d="M961.43 693.54L1115.85 500.28" stroke="hsl(329.6, 90.4%, 64%)" stroke-width="1.5"></path><path d="M1162.29 220.05L1162.29 220.05" stroke="hsl(329.6, 90.4%, 64%)" stroke-width="1.5"></path><path d="M1162.29 220.05L1142.99 350.53" stroke="hsl(329.6, 90.4%, 64%)" stroke-width="1.5"></path><path d="M1162.29 220.05L1308.45 107.31" stroke="hsl(329.6, 90.4%, 64%)" stroke-width="1.5"></path><path d="M1162.29 220.05L1296.21 365.32" stroke="hsl(329.6, 90.4%, 64%)" stroke-width="1.5"></path><path d="M1162.29 220.05L1010.56 381.71" stroke="hsl(329.6, 90.4%, 64%)" stroke-width="1.5"></path><path d="M1162.29 220.05L1402.19 337.97" stroke="hsl(329.6, 90.4%, 64%)" stroke-width="1.5"></path><path d="M1142.99 350.53L1142.99 350.53" stroke="hsl(329.6, 90.4%, 64%)" stroke-width="1.5"></path><path d="M1142.99 350.53L1115.85 500.28" stroke="hsl(329.6, 90.4%, 64%)" stroke-width="1.5"></path><path d="M1115.85 500.28L1115.85 500.28" stroke="hsl(329.6, 90.4%, 64%)" stroke-width="1.5"></path><path d="M1115.85 500.28L1272.93 557.07" stroke="hsl(329.6, 90.4%, 64%)" stroke-width="1.5"></path><path d="M1115.85 500.28L1133.5 670.33" stroke="hsl(329.6, 90.4%, 64%)" stroke-width="1.5"></path><path d="M1133.5 670.33L1133.5 670.33" stroke="hsl(329.6, 90.4%, 64%)" stroke-width="1.5"></path><path d="M1133.5 670.33L1294.41 692.85" stroke="hsl(329.6, 90.4%, 64%)" stroke-width="1.5"></path><path d="M1133.5 670.33L1272.93 557.07" stroke="hsl(329.6, 90.4%, 64%)" stroke-width="1.5"></path><path d="M1297.67 -106.55L1297.67 -106.55" stroke="hsl(329.6, 90.4%, 64%)" stroke-width="1.5"></path><path d="M1297.67 -106.55L1417.6 -111.78" stroke="hsl(329.6, 90.4%, 64%)" stroke-width="1.5"></path><path d="M1297.67 -106.55L1399.04 72.7" stroke="hsl(329.6, 90.4%, 64%)" stroke-width="1.5"></path><path d="M1297.67 -106.55L1308.45 107.31" stroke="hsl(329.6, 90.4%, 64%)" stroke-width="1.5"></path><path d="M1308.45 107.31L1308.45 107.31" stroke="hsl(329.6, 90.4%, 64%)" stroke-width="1.5"></path><path d="M1308.45 107.31L1399.04 72.7" stroke="hsl(329.6, 90.4%, 64%)" stroke-width="1.5"></path><path d="M1308.45 107.31L1417.6 -111.78" stroke="hsl(329.6, 90.4%, 64%)" stroke-width="1.5"></path><path d="M1308.45 107.31L1402.19 337.97" stroke="hsl(329.6, 90.4%, 64%)" stroke-width="1.5"></path><path d="M1272.93 557.07L1272.93 557.07" stroke="hsl(329.6, 90.4%, 64%)" stroke-width="1.5"></path><path d="M1272.93 557.07L1294.41 692.85" stroke="hsl(329.6, 90.4%, 64%)" stroke-width="1.5"></path><path d="M1272.93 557.07L1400.68 658.81" stroke="hsl(329.6, 90.4%, 64%)" stroke-width="1.5"></path><path d="M1294.41 692.85L1294.41 692.85" stroke="hsl(329.6, 90.4%, 64%)" stroke-width="1.5"></path><path d="M1294.41 692.85L1400.68 658.81" stroke="hsl(329.6, 90.4%, 64%)" stroke-width="1.5"></path><path d="M1294.41 692.85L1426.02 523.85" stroke="hsl(329.6, 90.4%, 64%)" stroke-width="1.5"></path><path d="M1417.6 -111.78L1417.6 -111.78" stroke="hsl(329.6, 90.4%, 64%)" stroke-width="1.5"></path><path d="M1417.6 -111.78L1399.04 72.7" stroke="hsl(329.6, 90.4%, 64%)" stroke-width="1.5"></path><path d="M1417.6 -111.78L1605.94 -65.94" stroke="hsl(329.6, 90.4%, 64%)" stroke-width="1.5"></path><path d="M1399.04 72.7L1399.04 72.7" stroke="hsl(329.6, 90.4%, 64%)" stroke-width="1.5"></path><path d="M1402.19 337.97L1402.19 337.97" stroke="hsl(329.6, 90.4%, 64%)" stroke-width="1.5"></path><path d="M1402.19 337.97L1548.99 338.84" stroke="hsl(329.6, 90.4%, 64%)" stroke-width="1.5"></path><path d="M1400.68 658.81L1400.68 658.81" stroke="hsl(329.6, 90.4%, 64%)" stroke-width="1.5"></path><path d="M1400.68 658.81L1133.5 670.33" stroke="hsl(329.6, 90.4%, 64%)" stroke-width="1.5"></path><path d="M1605.94 -65.94L1605.94 -65.94" stroke="hsl(329.6, 90.4%, 64%)" stroke-width="1.5"></path><path d="M1605.94 -65.94L1581.45 108.39" stroke="hsl(329.6, 90.4%, 64%)" stroke-width="1.5"></path><path d="M1605.94 -65.94L1399.04 72.7" stroke="hsl(329.6, 90.4%, 64%)" stroke-width="1.5"></path><path d="M1605.94 -65.94L1297.67 -106.55" stroke="hsl(329.6, 90.4%, 64%)" stroke-width="1.5"></path><path d="M1605.94 -65.94L1308.45 107.31" stroke="hsl(329.6, 90.4%, 64%)" stroke-width="1.5"></path><path d="M1581.45 108.39L1581.45 108.39" stroke="hsl(329.6, 90.4%, 64%)" stroke-width="1.5"></path><path d="M1581.45 108.39L1399.04 72.7" stroke="hsl(329.6, 90.4%, 64%)" stroke-width="1.5"></path><path d="M1581.45 108.39L1548.99 338.84" stroke="hsl(329.6, 90.4%, 64%)" stroke-width="1.5"></path><path d="M1548.99 338.84L1548.99 338.84" stroke="hsl(329.6, 90.4%, 64%)" stroke-width="1.5"></path><path d="M1548.99 338.84L1426.02 523.85" stroke="hsl(329.6, 90.4%, 64%)" stroke-width="1.5"></path><path d="M1548.99 338.84L1296.21 365.32" stroke="hsl(329.6, 90.4%, 64%)" stroke-width="1.5"></path><path d="M1548.99 338.84L1399.04 72.7" stroke="hsl(329.6, 90.4%, 64%)" stroke-width="1.5"></path><circle r="25" cx="346.36" cy="524.88" fill="url(#SvgjsRadialGradient1015)"></circle><circle r="25" cx="519.04" cy="645.35" fill="url(#SvgjsRadialGradient1015)"></circle><circle r="25" cx="1262.24" cy="201.41" fill="url(#SvgjsRadialGradient1015)"></circle><circle r="25" cx="1296.21" cy="365.32" fill="url(#SvgjsRadialGradient1015)"></circle><circle r="25" cx="1426.02" cy="523.85" fill="url(#SvgjsRadialGradient1015)"></circle><circle r="25" cx="1566.3" cy="658.51" fill="url(#SvgjsRadialGradient1015)"></circle><circle r="5" cx="-104.67" cy="535" fill="#f786bf"></circle><circle r="5" cx="-110.35" cy="674.22" fill="#f786bf"></circle><circle r="5" cx="57.05" cy="541.88" fill="#f786bf"></circle><circle r="5" cx="77.28" cy="681.93" fill="#f786bf"></circle><circle r="5" cx="189.93" cy="488.3" fill="#f786bf"></circle><circle r="5" cx="231.16" cy="687" fill="#f786bf"></circle><circle r="5" cx="368.04" cy="664.58" fill="#f786bf"></circle><circle r="5" cx="555.42" cy="406.53" fill="#f786bf"></circle><circle r="5" cx="658.53" cy="519.05" fill="#f786bf"></circle><circle r="5" cx="664.39" cy="689.74" fill="#f786bf"></circle><circle r="5" cx="796.53" cy="348.94" fill="#f786bf"></circle><circle r="5" cx="823.66" cy="546.91" fill="#f786bf"></circle><circle r="5" cx="852.17" cy="656.36" fill="#f786bf"></circle><circle r="5" cx="1010.56" cy="381.71" fill="#f786bf"></circle><circle r="5" cx="961.43" cy="693.54" fill="#f786bf"></circle><circle r="5" cx="1162.29" cy="220.05" fill="#f786bf"></circle><circle r="5" cx="1142.99" cy="350.53" fill="#f786bf"></circle><circle r="5" cx="1115.85" cy="500.28" fill="#f786bf"></circle><circle r="5" cx="1133.5" cy="670.33" fill="#f786bf"></circle><circle r="5" cx="1297.67" cy="-106.55" fill="#f786bf"></circle><circle r="5" cx="1308.45" cy="107.31" fill="#f786bf"></circle><circle r="5" cx="1272.93" cy="557.07" fill="#f786bf"></circle><circle r="5" cx="1294.41" cy="692.85" fill="#f786bf"></circle><circle r="5" cx="1417.6" cy="-111.78" fill="#f786bf"></circle><circle r="5" cx="1399.04" cy="72.7" fill="#f786bf"></circle><circle r="5" cx="1402.19" cy="337.97" fill="#f786bf"></circle><circle r="5" cx="1400.68" cy="658.81" fill="#f786bf"></circle><circle r="5" cx="1605.94" cy="-65.94" fill="#f786bf"></circle><circle r="5" cx="1581.45" cy="108.39" fill="#f786bf"></circle><circle r="5" cx="1548.99" cy="338.84" fill="#f786bf"></circle></g><defs><mask id="SvgjsMask1014"><rect width="1440" height="560" fill="#ffffff"></rect></mask><radialGradient id="SvgjsRadialGradient1015"><stop stop-color="#ffffff" offset="0.1"></stop><stop stop-color="rgba(239, 12, 127, 1)" offset="0.2"></stop><stop stop-color="rgba(239, 12, 127, 0)" offset="1"></stop></radialGradient></defs></svg>