<svg xmlns="http://www.w3.org/2000/svg" version="1.1" xmlns:xlink="http://www.w3.org/1999/xlink" xmlns:svgjs="http://svgjs.com/svgjs" width="1440" height="560" preserveAspectRatio="none" viewBox="0 0 1440 560"><g mask="url(&quot;#SvgjsMask1012&quot;)" fill="none"><rect width="1440" height="560" x="0" y="0" fill="rgba(220, 234, 249, 1)"></rect><path d="M-93.45 530.74L-93.45 530.74" stroke="rgba(255, 212, 228, 1)" stroke-width="1.5"></path><path d="M-93.45 530.74L71.61 499.65" stroke="rgba(255, 212, 228, 1)" stroke-width="1.5"></path><path d="M-93.45 530.74L91.61 643.85" stroke="rgba(255, 212, 228, 1)" stroke-width="1.5"></path><path d="M-93.45 530.74L95.99 402.57" stroke="rgba(255, 212, 228, 1)" stroke-width="1.5"></path><path d="M95.99 402.57L95.99 402.57" stroke="rgba(255, 212, 228, 1)" stroke-width="1.5"></path><path d="M95.99 402.57L71.61 499.65" stroke="rgba(255, 212, 228, 1)" stroke-width="1.5"></path><path d="M95.99 402.57L208.65 342.11" stroke="rgba(255, 212, 228, 1)" stroke-width="1.5"></path><path d="M95.99 402.57L235.78 542.83" stroke="rgba(255, 212, 228, 1)" stroke-width="1.5"></path><path d="M71.61 499.65L71.61 499.65" stroke="rgba(255, 212, 228, 1)" stroke-width="1.5"></path><path d="M71.61 499.65L91.61 643.85" stroke="rgba(255, 212, 228, 1)" stroke-width="1.5"></path><path d="M71.61 499.65L235.78 542.83" stroke="rgba(255, 212, 228, 1)" stroke-width="1.5"></path><path d="M91.61 643.85L91.61 643.85" stroke="rgba(255, 212, 228, 1)" stroke-width="1.5"></path><path d="M91.61 643.85L226 674.99" stroke="rgba(255, 212, 228, 1)" stroke-width="1.5"></path><path d="M208.65 342.11L208.65 342.11" stroke="rgba(255, 212, 228, 1)" stroke-width="1.5"></path><path d="M208.65 342.11L383.73 367.72" stroke="rgba(255, 212, 228, 1)" stroke-width="1.5"></path><path d="M208.65 342.11L235.78 542.83" stroke="rgba(255, 212, 228, 1)" stroke-width="1.5"></path><path d="M235.78 542.83L235.78 542.83" stroke="rgba(255, 212, 228, 1)" stroke-width="1.5"></path><path d="M235.78 542.83L226 674.99" stroke="rgba(255, 212, 228, 1)" stroke-width="1.5"></path><path d="M235.78 542.83L381.57 488.42" stroke="rgba(255, 212, 228, 1)" stroke-width="1.5"></path><path d="M235.78 542.83L91.61 643.85" stroke="rgba(255, 212, 228, 1)" stroke-width="1.5"></path><path d="M226 674.99L226 674.99" stroke="rgba(255, 212, 228, 1)" stroke-width="1.5"></path><path d="M226 674.99L382.72 665.1" stroke="rgba(255, 212, 228, 1)" stroke-width="1.5"></path><path d="M383.73 367.72L383.73 367.72" stroke="rgba(255, 212, 228, 1)" stroke-width="1.5"></path><path d="M383.73 367.72L491.64 380.63" stroke="rgba(255, 212, 228, 1)" stroke-width="1.5"></path><path d="M383.73 367.72L381.57 488.42" stroke="rgba(255, 212, 228, 1)" stroke-width="1.5"></path><path d="M381.57 488.42L381.57 488.42" stroke="rgba(255, 212, 228, 1)" stroke-width="1.5"></path><path d="M381.57 488.42L491.64 380.63" stroke="rgba(255, 212, 228, 1)" stroke-width="1.5"></path><path d="M381.57 488.42L382.72 665.1" stroke="rgba(255, 212, 228, 1)" stroke-width="1.5"></path><path d="M382.72 665.1L382.72 665.1" stroke="rgba(255, 212, 228, 1)" stroke-width="1.5"></path><path d="M491.64 380.63L491.64 380.63" stroke="rgba(255, 212, 228, 1)" stroke-width="1.5"></path><path d="M491.64 380.63L559.14 496.67" stroke="rgba(255, 212, 228, 1)" stroke-width="1.5"></path><path d="M491.64 380.63L689.51 410.46" stroke="rgba(255, 212, 228, 1)" stroke-width="1.5"></path><path d="M559.14 496.67L559.14 496.67" stroke="rgba(255, 212, 228, 1)" stroke-width="1.5"></path><path d="M559.14 496.67L687.79 548.42" stroke="rgba(255, 212, 228, 1)" stroke-width="1.5"></path><path d="M559.14 496.67L689.51 410.46" stroke="rgba(255, 212, 228, 1)" stroke-width="1.5"></path><path d="M559.14 496.67L381.57 488.42" stroke="rgba(255, 212, 228, 1)" stroke-width="1.5"></path><path d="M689.51 410.46L689.51 410.46" stroke="rgba(255, 212, 228, 1)" stroke-width="1.5"></path><path d="M689.51 410.46L816.46 362.86" stroke="rgba(255, 212, 228, 1)" stroke-width="1.5"></path><path d="M689.51 410.46L687.79 548.42" stroke="rgba(255, 212, 228, 1)" stroke-width="1.5"></path><path d="M687.79 548.42L687.79 548.42" stroke="rgba(255, 212, 228, 1)" stroke-width="1.5"></path><path d="M687.79 548.42L705.44 646.52" stroke="rgba(255, 212, 228, 1)" stroke-width="1.5"></path><path d="M687.79 548.42L817.31 533.11" stroke="rgba(255, 212, 228, 1)" stroke-width="1.5"></path><path d="M705.44 646.52L705.44 646.52" stroke="rgba(255, 212, 228, 1)" stroke-width="1.5"></path><path d="M705.44 646.52L799.42 697.55" stroke="rgba(255, 212, 228, 1)" stroke-width="1.5"></path><path d="M830.4 203.66L830.4 203.66" stroke="rgba(255, 212, 228, 1)" stroke-width="1.5"></path><path d="M830.4 203.66L973.12 245.76" stroke="rgba(255, 212, 228, 1)" stroke-width="1.5"></path><path d="M816.46 362.86L816.46 362.86" stroke="rgba(255, 212, 228, 1)" stroke-width="1.5"></path><path d="M816.46 362.86L952.14 342.11" stroke="rgba(255, 212, 228, 1)" stroke-width="1.5"></path><path d="M816.46 362.86L830.4 203.66" stroke="rgba(255, 212, 228, 1)" stroke-width="1.5"></path><path d="M816.46 362.86L817.31 533.11" stroke="rgba(255, 212, 228, 1)" stroke-width="1.5"></path><path d="M816.46 362.86L973.12 245.76" stroke="rgba(255, 212, 228, 1)" stroke-width="1.5"></path><path d="M816.46 362.86L687.79 548.42" stroke="rgba(255, 212, 228, 1)" stroke-width="1.5"></path><path d="M817.31 533.11L817.31 533.11" stroke="rgba(255, 212, 228, 1)" stroke-width="1.5"></path><path d="M817.31 533.11L705.44 646.52" stroke="rgba(255, 212, 228, 1)" stroke-width="1.5"></path><path d="M817.31 533.11L799.42 697.55" stroke="rgba(255, 212, 228, 1)" stroke-width="1.5"></path><path d="M799.42 697.55L799.42 697.55" stroke="rgba(255, 212, 228, 1)" stroke-width="1.5"></path><path d="M799.42 697.55L687.79 548.42" stroke="rgba(255, 212, 228, 1)" stroke-width="1.5"></path><path d="M799.42 697.55L1004.06 520.51" stroke="rgba(255, 212, 228, 1)" stroke-width="1.5"></path><path d="M941.6 -57.74L941.6 -57.74" stroke="rgba(255, 212, 228, 1)" stroke-width="1.5"></path><path d="M941.6 -57.74L969.71 70.47" stroke="rgba(255, 212, 228, 1)" stroke-width="1.5"></path><path d="M941.6 -57.74L1115.98 -42.84" stroke="rgba(255, 212, 228, 1)" stroke-width="1.5"></path><path d="M941.6 -57.74L1114.87 89.97" stroke="rgba(255, 212, 228, 1)" stroke-width="1.5"></path><path d="M941.6 -57.74L830.4 203.66" stroke="rgba(255, 212, 228, 1)" stroke-width="1.5"></path><path d="M941.6 -57.74L973.12 245.76" stroke="rgba(255, 212, 228, 1)" stroke-width="1.5"></path><path d="M941.6 -57.74L1146.13 193.35" stroke="rgba(255, 212, 228, 1)" stroke-width="1.5"></path><path d="M969.71 70.47L969.71 70.47" stroke="rgba(255, 212, 228, 1)" stroke-width="1.5"></path><path d="M969.71 70.47L1114.87 89.97" stroke="rgba(255, 212, 228, 1)" stroke-width="1.5"></path><path d="M969.71 70.47L973.12 245.76" stroke="rgba(255, 212, 228, 1)" stroke-width="1.5"></path><path d="M973.12 245.76L973.12 245.76" stroke="rgba(255, 212, 228, 1)" stroke-width="1.5"></path><path d="M973.12 245.76L952.14 342.11" stroke="rgba(255, 212, 228, 1)" stroke-width="1.5"></path><path d="M973.12 245.76L1146.13 193.35" stroke="rgba(255, 212, 228, 1)" stroke-width="1.5"></path><path d="M973.12 245.76L1114.87 89.97" stroke="rgba(255, 212, 228, 1)" stroke-width="1.5"></path><path d="M952.14 342.11L952.14 342.11" stroke="rgba(255, 212, 228, 1)" stroke-width="1.5"></path><path d="M952.14 342.11L830.4 203.66" stroke="rgba(255, 212, 228, 1)" stroke-width="1.5"></path><path d="M952.14 342.11L1004.06 520.51" stroke="rgba(255, 212, 228, 1)" stroke-width="1.5"></path><path d="M952.14 342.11L1158.2 387.89" stroke="rgba(255, 212, 228, 1)" stroke-width="1.5"></path><path d="M1004.06 520.51L1004.06 520.51" stroke="rgba(255, 212, 228, 1)" stroke-width="1.5"></path><path d="M1004.06 520.51L1136.71 510.68" stroke="rgba(255, 212, 228, 1)" stroke-width="1.5"></path><path d="M1004.06 520.51L1088.3 669.39" stroke="rgba(255, 212, 228, 1)" stroke-width="1.5"></path><path d="M1004.06 520.51L817.31 533.11" stroke="rgba(255, 212, 228, 1)" stroke-width="1.5"></path><path d="M1004.06 520.51L1158.2 387.89" stroke="rgba(255, 212, 228, 1)" stroke-width="1.5"></path><path d="M1115.98 -42.84L1115.98 -42.84" stroke="rgba(255, 212, 228, 1)" stroke-width="1.5"></path><path d="M1115.98 -42.84L1114.87 89.97" stroke="rgba(255, 212, 228, 1)" stroke-width="1.5"></path><path d="M1115.98 -42.84L1279.43 -61.4" stroke="rgba(255, 212, 228, 1)" stroke-width="1.5"></path><path d="M1115.98 -42.84L969.71 70.47" stroke="rgba(255, 212, 228, 1)" stroke-width="1.5"></path><path d="M1114.87 89.97L1114.87 89.97" stroke="rgba(255, 212, 228, 1)" stroke-width="1.5"></path><path d="M1114.87 89.97L1146.13 193.35" stroke="rgba(255, 212, 228, 1)" stroke-width="1.5"></path><path d="M1114.87 89.97L1265.99 102.33" stroke="rgba(255, 212, 228, 1)" stroke-width="1.5"></path><path d="M1114.87 89.97L1238.53 193.64" stroke="rgba(255, 212, 228, 1)" stroke-width="1.5"></path><path d="M1146.13 193.35L1146.13 193.35" stroke="rgba(255, 212, 228, 1)" stroke-width="1.5"></path><path d="M1146.13 193.35L1238.53 193.64" stroke="rgba(255, 212, 228, 1)" stroke-width="1.5"></path><path d="M1146.13 193.35L1265.99 102.33" stroke="rgba(255, 212, 228, 1)" stroke-width="1.5"></path><path d="M1146.13 193.35L1158.2 387.89" stroke="rgba(255, 212, 228, 1)" stroke-width="1.5"></path><path d="M1158.2 387.89L1158.2 387.89" stroke="rgba(255, 212, 228, 1)" stroke-width="1.5"></path><path d="M1158.2 387.89L1136.71 510.68" stroke="rgba(255, 212, 228, 1)" stroke-width="1.5"></path><path d="M1158.2 387.89L1307.08 395.61" stroke="rgba(255, 212, 228, 1)" stroke-width="1.5"></path><path d="M1158.2 387.89L1255.59 504.25" stroke="rgba(255, 212, 228, 1)" stroke-width="1.5"></path><path d="M1136.71 510.68L1136.71 510.68" stroke="rgba(255, 212, 228, 1)" stroke-width="1.5"></path><path d="M1136.71 510.68L1255.59 504.25" stroke="rgba(255, 212, 228, 1)" stroke-width="1.5"></path><path d="M1136.71 510.68L1088.3 669.39" stroke="rgba(255, 212, 228, 1)" stroke-width="1.5"></path><path d="M1088.3 669.39L1088.3 669.39" stroke="rgba(255, 212, 228, 1)" stroke-width="1.5"></path><path d="M1088.3 669.39L1304.77 701.2" stroke="rgba(255, 212, 228, 1)" stroke-width="1.5"></path><path d="M1088.3 669.39L1255.59 504.25" stroke="rgba(255, 212, 228, 1)" stroke-width="1.5"></path><path d="M1279.43 -61.4L1279.43 -61.4" stroke="rgba(255, 212, 228, 1)" stroke-width="1.5"></path><path d="M1279.43 -61.4L1394.83 -79.45" stroke="rgba(255, 212, 228, 1)" stroke-width="1.5"></path><path d="M1279.43 -61.4L1265.99 102.33" stroke="rgba(255, 212, 228, 1)" stroke-width="1.5"></path><path d="M1265.99 102.33L1265.99 102.33" stroke="rgba(255, 212, 228, 1)" stroke-width="1.5"></path><path d="M1265.99 102.33L1238.53 193.64" stroke="rgba(255, 212, 228, 1)" stroke-width="1.5"></path><path d="M1265.99 102.33L1399.62 107.63" stroke="rgba(255, 212, 228, 1)" stroke-width="1.5"></path><path d="M1238.53 193.64L1238.53 193.64" stroke="rgba(255, 212, 228, 1)" stroke-width="1.5"></path><path d="M1238.53 193.64L1399.62 107.63" stroke="rgba(255, 212, 228, 1)" stroke-width="1.5"></path><path d="M1238.53 193.64L1424.33 232.16" stroke="rgba(255, 212, 228, 1)" stroke-width="1.5"></path><path d="M1307.08 395.61L1307.08 395.61" stroke="rgba(255, 212, 228, 1)" stroke-width="1.5"></path><path d="M1307.08 395.61L1255.59 504.25" stroke="rgba(255, 212, 228, 1)" stroke-width="1.5"></path><path d="M1307.08 395.61L1450.22 400.92" stroke="rgba(255, 212, 228, 1)" stroke-width="1.5"></path><path d="M1307.08 395.61L1407.84 497.46" stroke="rgba(255, 212, 228, 1)" stroke-width="1.5"></path><path d="M1307.08 395.61L1424.33 232.16" stroke="rgba(255, 212, 228, 1)" stroke-width="1.5"></path><path d="M1255.59 504.25L1255.59 504.25" stroke="rgba(255, 212, 228, 1)" stroke-width="1.5"></path><path d="M1255.59 504.25L1407.84 497.46" stroke="rgba(255, 212, 228, 1)" stroke-width="1.5"></path><path d="M1255.59 504.25L1304.77 701.2" stroke="rgba(255, 212, 228, 1)" stroke-width="1.5"></path><path d="M1255.59 504.25L1450.22 400.92" stroke="rgba(255, 212, 228, 1)" stroke-width="1.5"></path><path d="M1304.77 701.2L1304.77 701.2" stroke="rgba(255, 212, 228, 1)" stroke-width="1.5"></path><path d="M1304.77 701.2L1406.64 702.67" stroke="rgba(255, 212, 228, 1)" stroke-width="1.5"></path><path d="M1304.77 701.2L1407.84 497.46" stroke="rgba(255, 212, 228, 1)" stroke-width="1.5"></path><path d="M1304.77 701.2L1136.71 510.68" stroke="rgba(255, 212, 228, 1)" stroke-width="1.5"></path><path d="M1394.83 -79.45L1394.83 -79.45" stroke="rgba(255, 212, 228, 1)" stroke-width="1.5"></path><path d="M1394.83 -79.45L1399.62 107.63" stroke="rgba(255, 212, 228, 1)" stroke-width="1.5"></path><path d="M1394.83 -79.45L1584.1 -68.45" stroke="rgba(255, 212, 228, 1)" stroke-width="1.5"></path><path d="M1394.83 -79.45L1265.99 102.33" stroke="rgba(255, 212, 228, 1)" stroke-width="1.5"></path><path d="M1399.62 107.63L1399.62 107.63" stroke="rgba(255, 212, 228, 1)" stroke-width="1.5"></path><path d="M1399.62 107.63L1424.33 232.16" stroke="rgba(255, 212, 228, 1)" stroke-width="1.5"></path><path d="M1424.33 232.16L1424.33 232.16" stroke="rgba(255, 212, 228, 1)" stroke-width="1.5"></path><path d="M1424.33 232.16L1587.31 218.6" stroke="rgba(255, 212, 228, 1)" stroke-width="1.5"></path><path d="M1424.33 232.16L1450.22 400.92" stroke="rgba(255, 212, 228, 1)" stroke-width="1.5"></path><path d="M1450.22 400.92L1450.22 400.92" stroke="rgba(255, 212, 228, 1)" stroke-width="1.5"></path><path d="M1450.22 400.92L1407.84 497.46" stroke="rgba(255, 212, 228, 1)" stroke-width="1.5"></path><path d="M1450.22 400.92L1587.33 357.91" stroke="rgba(255, 212, 228, 1)" stroke-width="1.5"></path><path d="M1407.84 497.46L1407.84 497.46" stroke="rgba(255, 212, 228, 1)" stroke-width="1.5"></path><path d="M1407.84 497.46L1564.38 507.07" stroke="rgba(255, 212, 228, 1)" stroke-width="1.5"></path><path d="M1407.84 497.46L1406.64 702.67" stroke="rgba(255, 212, 228, 1)" stroke-width="1.5"></path><path d="M1406.64 702.67L1406.64 702.67" stroke="rgba(255, 212, 228, 1)" stroke-width="1.5"></path><path d="M1406.64 702.67L1255.59 504.25" stroke="rgba(255, 212, 228, 1)" stroke-width="1.5"></path><path d="M1406.64 702.67L1564.38 507.07" stroke="rgba(255, 212, 228, 1)" stroke-width="1.5"></path><path d="M1406.64 702.67L1450.22 400.92" stroke="rgba(255, 212, 228, 1)" stroke-width="1.5"></path><path d="M1406.64 702.67L1088.3 669.39" stroke="rgba(255, 212, 228, 1)" stroke-width="1.5"></path><path d="M1584.1 -68.45L1584.1 -68.45" stroke="rgba(255, 212, 228, 1)" stroke-width="1.5"></path><path d="M1584.1 -68.45L1399.62 107.63" stroke="rgba(255, 212, 228, 1)" stroke-width="1.5"></path><path d="M1587.31 218.6L1587.31 218.6" stroke="rgba(255, 212, 228, 1)" stroke-width="1.5"></path><path d="M1587.31 218.6L1587.33 357.91" stroke="rgba(255, 212, 228, 1)" stroke-width="1.5"></path><path d="M1587.31 218.6L1399.62 107.63" stroke="rgba(255, 212, 228, 1)" stroke-width="1.5"></path><path d="M1587.31 218.6L1450.22 400.92" stroke="rgba(255, 212, 228, 1)" stroke-width="1.5"></path><path d="M1587.33 357.91L1587.33 357.91" stroke="rgba(255, 212, 228, 1)" stroke-width="1.5"></path><path d="M1564.38 507.07L1564.38 507.07" stroke="rgba(255, 212, 228, 1)" stroke-width="1.5"></path><path d="M1564.38 507.07L1587.33 357.91" stroke="rgba(255, 212, 228, 1)" stroke-width="1.5"></path><path d="M1564.38 507.07L1450.22 400.92" stroke="rgba(255, 212, 228, 1)" stroke-width="1.5"></path><circle r="5" cx="-93.45" cy="530.74" fill="rgba(255, 212, 228, 1)"></circle><circle r="5" cx="95.99" cy="402.57" fill="rgba(255, 212, 228, 1)"></circle><circle r="5" cx="71.61" cy="499.65" fill="rgba(255, 212, 228, 1)"></circle><circle r="5" cx="91.61" cy="643.85" fill="rgba(255, 212, 228, 1)"></circle><circle r="5" cx="208.65" cy="342.11" fill="rgba(255, 212, 228, 1)"></circle><circle r="5" cx="235.78" cy="542.83" fill="rgba(255, 212, 228, 1)"></circle><circle r="5" cx="226" cy="674.99" fill="rgba(255, 212, 228, 1)"></circle><circle r="5" cx="383.73" cy="367.72" fill="rgba(255, 212, 228, 1)"></circle><circle r="5" cx="381.57" cy="488.42" fill="rgba(255, 212, 228, 1)"></circle><circle r="5" cx="382.72" cy="665.1" fill="rgba(255, 212, 228, 1)"></circle><circle r="5" cx="491.64" cy="380.63" fill="rgba(255, 212, 228, 1)"></circle><circle r="5" cx="559.14" cy="496.67" fill="rgba(255, 212, 228, 1)"></circle><circle r="5" cx="689.51" cy="410.46" fill="rgba(255, 212, 228, 1)"></circle><circle r="5" cx="687.79" cy="548.42" fill="rgba(255, 212, 228, 1)"></circle><circle r="5" cx="705.44" cy="646.52" fill="rgba(255, 212, 228, 1)"></circle><circle r="5" cx="830.4" cy="203.66" fill="rgba(255, 212, 228, 1)"></circle><circle r="5" cx="816.46" cy="362.86" fill="rgba(255, 212, 228, 1)"></circle><circle r="5" cx="817.31" cy="533.11" fill="rgba(255, 212, 228, 1)"></circle><circle r="5" cx="799.42" cy="697.55" fill="rgba(255, 212, 228, 1)"></circle><circle r="5" cx="941.6" cy="-57.74" fill="rgba(255, 212, 228, 1)"></circle><circle r="5" cx="969.71" cy="70.47" fill="rgba(255, 212, 228, 1)"></circle><circle r="5" cx="973.12" cy="245.76" fill="rgba(255, 212, 228, 1)"></circle><circle r="5" cx="952.14" cy="342.11" fill="rgba(255, 212, 228, 1)"></circle><circle r="5" cx="1004.06" cy="520.51" fill="rgba(255, 212, 228, 1)"></circle><circle r="5" cx="1115.98" cy="-42.84" fill="rgba(255, 212, 228, 1)"></circle><circle r="5" cx="1114.87" cy="89.97" fill="rgba(255, 212, 228, 1)"></circle><circle r="5" cx="1146.13" cy="193.35" fill="rgba(255, 212, 228, 1)"></circle><circle r="5" cx="1158.2" cy="387.89" fill="rgba(255, 212, 228, 1)"></circle><circle r="5" cx="1136.71" cy="510.68" fill="rgba(255, 212, 228, 1)"></circle><circle r="5" cx="1088.3" cy="669.39" fill="rgba(255, 212, 228, 1)"></circle><circle r="5" cx="1279.43" cy="-61.4" fill="rgba(255, 212, 228, 1)"></circle><circle r="5" cx="1265.99" cy="102.33" fill="rgba(255, 212, 228, 1)"></circle><circle r="5" cx="1238.53" cy="193.64" fill="rgba(255, 212, 228, 1)"></circle><circle r="5" cx="1307.08" cy="395.61" fill="rgba(255, 212, 228, 1)"></circle><circle r="5" cx="1255.59" cy="504.25" fill="rgba(255, 212, 228, 1)"></circle><circle r="5" cx="1304.77" cy="701.2" fill="rgba(255, 212, 228, 1)"></circle><circle r="5" cx="1394.83" cy="-79.45" fill="rgba(255, 212, 228, 1)"></circle><circle r="5" cx="1399.62" cy="107.63" fill="rgba(255, 212, 228, 1)"></circle><circle r="5" cx="1424.33" cy="232.16" fill="rgba(255, 212, 228, 1)"></circle><circle r="5" cx="1450.22" cy="400.92" fill="rgba(255, 212, 228, 1)"></circle><circle r="5" cx="1407.84" cy="497.46" fill="rgba(255, 212, 228, 1)"></circle><circle r="5" cx="1406.64" cy="702.67" fill="rgba(255, 212, 228, 1)"></circle><circle r="5" cx="1584.1" cy="-68.45" fill="rgba(255, 212, 228, 1)"></circle><circle r="5" cx="1587.31" cy="218.6" fill="rgba(255, 212, 228, 1)"></circle><circle r="5" cx="1587.33" cy="357.91" fill="rgba(255, 212, 228, 1)"></circle><circle r="5" cx="1564.38" cy="507.07" fill="rgba(255, 212, 228, 1)"></circle><path d="M260.73 545.25L260.73 545.25" stroke="hsl(208.5, 75.3%, 100%)" stroke-width="1.5"></path><path d="M260.73 545.25L354.01 520.83" stroke="hsl(208.5, 75.3%, 100%)" stroke-width="1.5"></path><path d="M260.73 545.25L340.61 669.4" stroke="hsl(208.5, 75.3%, 100%)" stroke-width="1.5"></path><path d="M260.73 545.25L207.32 692.15" stroke="hsl(208.5, 75.3%, 100%)" stroke-width="1.5"></path><path d="M1157.68 543.76L1157.68 543.76" stroke="hsl(208.5, 75.3%, 100%)" stroke-width="1.5"></path><path d="M1157.68 543.76L1130.67 689.91" stroke="hsl(208.5, 75.3%, 100%)" stroke-width="1.5"></path><path d="M1157.68 543.76L1307.73 498.01" stroke="hsl(208.5, 75.3%, 100%)" stroke-width="1.5"></path><path d="M1157.68 543.76L1269.2 659.51" stroke="hsl(208.5, 75.3%, 100%)" stroke-width="1.5"></path><path d="M1157.68 543.76L1121.86 386.69" stroke="hsl(208.5, 75.3%, 100%)" stroke-width="1.5"></path><path d="M1157.68 543.76L1003.88 648.99" stroke="hsl(208.5, 75.3%, 100%)" stroke-width="1.5"></path><path d="M1157.68 543.76L949.61 548.51" stroke="hsl(208.5, 75.3%, 100%)" stroke-width="1.5"></path><path d="M1307.14 343.06L1307.14 343.06" stroke="hsl(208.5, 75.3%, 100%)" stroke-width="1.5"></path><path d="M1307.14 343.06L1402.15 391.54" stroke="hsl(208.5, 75.3%, 100%)" stroke-width="1.5"></path><path d="M1307.14 343.06L1308.88 222.21" stroke="hsl(208.5, 75.3%, 100%)" stroke-width="1.5"></path><path d="M1307.14 343.06L1307.73 498.01" stroke="hsl(208.5, 75.3%, 100%)" stroke-width="1.5"></path><path d="M1307.14 343.06L1418.12 215.79" stroke="hsl(208.5, 75.3%, 100%)" stroke-width="1.5"></path><path d="M1307.14 343.06L1121.86 386.69" stroke="hsl(208.5, 75.3%, 100%)" stroke-width="1.5"></path><path d="M1307.14 343.06L1441.85 546.15" stroke="hsl(208.5, 75.3%, 100%)" stroke-width="1.5"></path><path d="M1307.73 498.01L1307.73 498.01" stroke="hsl(208.5, 75.3%, 100%)" stroke-width="1.5"></path><path d="M1307.73 498.01L1402.15 391.54" stroke="hsl(208.5, 75.3%, 100%)" stroke-width="1.5"></path><path d="M1307.73 498.01L1441.85 546.15" stroke="hsl(208.5, 75.3%, 100%)" stroke-width="1.5"></path><path d="M1307.73 498.01L1269.2 659.51" stroke="hsl(208.5, 75.3%, 100%)" stroke-width="1.5"></path><path d="M1307.73 498.01L1417.13 658" stroke="hsl(208.5, 75.3%, 100%)" stroke-width="1.5"></path><path d="M1418.12 215.79L1418.12 215.79" stroke="hsl(208.5, 75.3%, 100%)" stroke-width="1.5"></path><path d="M1418.12 215.79L1308.88 222.21" stroke="hsl(208.5, 75.3%, 100%)" stroke-width="1.5"></path><path d="M1418.12 215.79L1542.67 200.73" stroke="hsl(208.5, 75.3%, 100%)" stroke-width="1.5"></path><path d="M1418.12 215.79L1457.09 91.62" stroke="hsl(208.5, 75.3%, 100%)" stroke-width="1.5"></path><path d="M1418.12 215.79L1402.15 391.54" stroke="hsl(208.5, 75.3%, 100%)" stroke-width="1.5"></path><path d="M-79.49 505.3L-79.49 505.3" stroke="hsl(208.5, 75.3%, 100%)" stroke-width="1.5"></path><path d="M-79.49 505.3L-89.4 690.63" stroke="hsl(208.5, 75.3%, 100%)" stroke-width="1.5"></path><path d="M-79.49 505.3L207.32 692.15" stroke="hsl(208.5, 75.3%, 100%)" stroke-width="1.5"></path><path d="M-79.49 505.3L260.73 545.25" stroke="hsl(208.5, 75.3%, 100%)" stroke-width="1.5"></path><path d="M-79.49 505.3L354.01 520.83" stroke="hsl(208.5, 75.3%, 100%)" stroke-width="1.5"></path><path d="M-79.49 505.3L340.61 669.4" stroke="hsl(208.5, 75.3%, 100%)" stroke-width="1.5"></path><path d="M-89.4 690.63L-89.4 690.63" stroke="hsl(208.5, 75.3%, 100%)" stroke-width="1.5"></path><path d="M-89.4 690.63L207.32 692.15" stroke="hsl(208.5, 75.3%, 100%)" stroke-width="1.5"></path><path d="M207.32 692.15L207.32 692.15" stroke="hsl(208.5, 75.3%, 100%)" stroke-width="1.5"></path><path d="M207.32 692.15L340.61 669.4" stroke="hsl(208.5, 75.3%, 100%)" stroke-width="1.5"></path><path d="M207.32 692.15L354.01 520.83" stroke="hsl(208.5, 75.3%, 100%)" stroke-width="1.5"></path><path d="M354.01 520.83L354.01 520.83" stroke="hsl(208.5, 75.3%, 100%)" stroke-width="1.5"></path><path d="M354.01 520.83L340.61 669.4" stroke="hsl(208.5, 75.3%, 100%)" stroke-width="1.5"></path><path d="M354.01 520.83L527.69 643.71" stroke="hsl(208.5, 75.3%, 100%)" stroke-width="1.5"></path><path d="M340.61 669.4L340.61 669.4" stroke="hsl(208.5, 75.3%, 100%)" stroke-width="1.5"></path><path d="M340.61 669.4L527.69 643.71" stroke="hsl(208.5, 75.3%, 100%)" stroke-width="1.5"></path><path d="M340.61 669.4L695.57 711.47" stroke="hsl(208.5, 75.3%, 100%)" stroke-width="1.5"></path><path d="M340.61 669.4L676.86 510.32" stroke="hsl(208.5, 75.3%, 100%)" stroke-width="1.5"></path><path d="M527.69 643.71L527.69 643.71" stroke="hsl(208.5, 75.3%, 100%)" stroke-width="1.5"></path><path d="M527.69 643.71L695.57 711.47" stroke="hsl(208.5, 75.3%, 100%)" stroke-width="1.5"></path><path d="M527.69 643.71L676.86 510.32" stroke="hsl(208.5, 75.3%, 100%)" stroke-width="1.5"></path><path d="M653.11 377.76L653.11 377.76" stroke="hsl(208.5, 75.3%, 100%)" stroke-width="1.5"></path><path d="M653.11 377.76L676.86 510.32" stroke="hsl(208.5, 75.3%, 100%)" stroke-width="1.5"></path><path d="M653.11 377.76L802.28 347.65" stroke="hsl(208.5, 75.3%, 100%)" stroke-width="1.5"></path><path d="M653.11 377.76L823.88 511.33" stroke="hsl(208.5, 75.3%, 100%)" stroke-width="1.5"></path><path d="M676.86 510.32L676.86 510.32" stroke="hsl(208.5, 75.3%, 100%)" stroke-width="1.5"></path><path d="M676.86 510.32L823.88 511.33" stroke="hsl(208.5, 75.3%, 100%)" stroke-width="1.5"></path><path d="M676.86 510.32L695.57 711.47" stroke="hsl(208.5, 75.3%, 100%)" stroke-width="1.5"></path><path d="M676.86 510.32L802.28 347.65" stroke="hsl(208.5, 75.3%, 100%)" stroke-width="1.5"></path><path d="M695.57 711.47L695.57 711.47" stroke="hsl(208.5, 75.3%, 100%)" stroke-width="1.5"></path><path d="M695.57 711.47L789.44 695.1" stroke="hsl(208.5, 75.3%, 100%)" stroke-width="1.5"></path><path d="M695.57 711.47L823.88 511.33" stroke="hsl(208.5, 75.3%, 100%)" stroke-width="1.5"></path><path d="M695.57 711.47L949.61 548.51" stroke="hsl(208.5, 75.3%, 100%)" stroke-width="1.5"></path><path d="M695.57 711.47L1003.88 648.99" stroke="hsl(208.5, 75.3%, 100%)" stroke-width="1.5"></path><path d="M802.28 347.65L802.28 347.65" stroke="hsl(208.5, 75.3%, 100%)" stroke-width="1.5"></path><path d="M802.28 347.65L963.93 354.09" stroke="hsl(208.5, 75.3%, 100%)" stroke-width="1.5"></path><path d="M802.28 347.65L823.88 511.33" stroke="hsl(208.5, 75.3%, 100%)" stroke-width="1.5"></path><path d="M802.28 347.65L949.61 548.51" stroke="hsl(208.5, 75.3%, 100%)" stroke-width="1.5"></path><path d="M802.28 347.65L1121.86 386.69" stroke="hsl(208.5, 75.3%, 100%)" stroke-width="1.5"></path><path d="M823.88 511.33L823.88 511.33" stroke="hsl(208.5, 75.3%, 100%)" stroke-width="1.5"></path><path d="M823.88 511.33L949.61 548.51" stroke="hsl(208.5, 75.3%, 100%)" stroke-width="1.5"></path><path d="M823.88 511.33L789.44 695.1" stroke="hsl(208.5, 75.3%, 100%)" stroke-width="1.5"></path><path d="M823.88 511.33L963.93 354.09" stroke="hsl(208.5, 75.3%, 100%)" stroke-width="1.5"></path><path d="M789.44 695.1L789.44 695.1" stroke="hsl(208.5, 75.3%, 100%)" stroke-width="1.5"></path><path d="M789.44 695.1L676.86 510.32" stroke="hsl(208.5, 75.3%, 100%)" stroke-width="1.5"></path><path d="M789.44 695.1L949.61 548.51" stroke="hsl(208.5, 75.3%, 100%)" stroke-width="1.5"></path><path d="M789.44 695.1L1003.88 648.99" stroke="hsl(208.5, 75.3%, 100%)" stroke-width="1.5"></path><path d="M789.44 695.1L527.69 643.71" stroke="hsl(208.5, 75.3%, 100%)" stroke-width="1.5"></path><path d="M963.93 354.09L963.93 354.09" stroke="hsl(208.5, 75.3%, 100%)" stroke-width="1.5"></path><path d="M963.93 354.09L1121.86 386.69" stroke="hsl(208.5, 75.3%, 100%)" stroke-width="1.5"></path><path d="M963.93 354.09L949.61 548.51" stroke="hsl(208.5, 75.3%, 100%)" stroke-width="1.5"></path><path d="M963.93 354.09L1104.73 196.75" stroke="hsl(208.5, 75.3%, 100%)" stroke-width="1.5"></path><path d="M963.93 354.09L1157.68 543.76" stroke="hsl(208.5, 75.3%, 100%)" stroke-width="1.5"></path><path d="M949.61 548.51L949.61 548.51" stroke="hsl(208.5, 75.3%, 100%)" stroke-width="1.5"></path><path d="M949.61 548.51L1003.88 648.99" stroke="hsl(208.5, 75.3%, 100%)" stroke-width="1.5"></path><path d="M949.61 548.51L1130.67 689.91" stroke="hsl(208.5, 75.3%, 100%)" stroke-width="1.5"></path><path d="M1003.88 648.99L1003.88 648.99" stroke="hsl(208.5, 75.3%, 100%)" stroke-width="1.5"></path><path d="M1003.88 648.99L1130.67 689.91" stroke="hsl(208.5, 75.3%, 100%)" stroke-width="1.5"></path><path d="M1003.88 648.99L823.88 511.33" stroke="hsl(208.5, 75.3%, 100%)" stroke-width="1.5"></path><path d="M1104.73 196.75L1104.73 196.75" stroke="hsl(208.5, 75.3%, 100%)" stroke-width="1.5"></path><path d="M1104.73 196.75L1121.86 386.69" stroke="hsl(208.5, 75.3%, 100%)" stroke-width="1.5"></path><path d="M1104.73 196.75L1308.88 222.21" stroke="hsl(208.5, 75.3%, 100%)" stroke-width="1.5"></path><path d="M1121.86 386.69L1121.86 386.69" stroke="hsl(208.5, 75.3%, 100%)" stroke-width="1.5"></path><path d="M1130.67 689.91L1130.67 689.91" stroke="hsl(208.5, 75.3%, 100%)" stroke-width="1.5"></path><path d="M1130.67 689.91L1269.2 659.51" stroke="hsl(208.5, 75.3%, 100%)" stroke-width="1.5"></path><path d="M1130.67 689.91L1307.73 498.01" stroke="hsl(208.5, 75.3%, 100%)" stroke-width="1.5"></path><path d="M1130.67 689.91L1417.13 658" stroke="hsl(208.5, 75.3%, 100%)" stroke-width="1.5"></path><path d="M1246.09 -64.55L1246.09 -64.55" stroke="hsl(208.5, 75.3%, 100%)" stroke-width="1.5"></path><path d="M1246.09 -64.55L1292.37 55.43" stroke="hsl(208.5, 75.3%, 100%)" stroke-width="1.5"></path><path d="M1246.09 -64.55L1442.93 -108.08" stroke="hsl(208.5, 75.3%, 100%)" stroke-width="1.5"></path><path d="M1246.09 -64.55L1457.09 91.62" stroke="hsl(208.5, 75.3%, 100%)" stroke-width="1.5"></path><path d="M1292.37 55.43L1292.37 55.43" stroke="hsl(208.5, 75.3%, 100%)" stroke-width="1.5"></path><path d="M1292.37 55.43L1308.88 222.21" stroke="hsl(208.5, 75.3%, 100%)" stroke-width="1.5"></path><path d="M1292.37 55.43L1457.09 91.62" stroke="hsl(208.5, 75.3%, 100%)" stroke-width="1.5"></path><path d="M1292.37 55.43L1418.12 215.79" stroke="hsl(208.5, 75.3%, 100%)" stroke-width="1.5"></path><path d="M1292.37 55.43L1442.93 -108.08" stroke="hsl(208.5, 75.3%, 100%)" stroke-width="1.5"></path><path d="M1292.37 55.43L1104.73 196.75" stroke="hsl(208.5, 75.3%, 100%)" stroke-width="1.5"></path><path d="M1308.88 222.21L1308.88 222.21" stroke="hsl(208.5, 75.3%, 100%)" stroke-width="1.5"></path><path d="M1308.88 222.21L1402.15 391.54" stroke="hsl(208.5, 75.3%, 100%)" stroke-width="1.5"></path><path d="M1308.88 222.21L1457.09 91.62" stroke="hsl(208.5, 75.3%, 100%)" stroke-width="1.5"></path><path d="M1269.2 659.51L1269.2 659.51" stroke="hsl(208.5, 75.3%, 100%)" stroke-width="1.5"></path><path d="M1269.2 659.51L1417.13 658" stroke="hsl(208.5, 75.3%, 100%)" stroke-width="1.5"></path><path d="M1442.93 -108.08L1442.93 -108.08" stroke="hsl(208.5, 75.3%, 100%)" stroke-width="1.5"></path><path d="M1442.93 -108.08L1572.58 -67.71" stroke="hsl(208.5, 75.3%, 100%)" stroke-width="1.5"></path><path d="M1442.93 -108.08L1457.09 91.62" stroke="hsl(208.5, 75.3%, 100%)" stroke-width="1.5"></path><path d="M1457.09 91.62L1457.09 91.62" stroke="hsl(208.5, 75.3%, 100%)" stroke-width="1.5"></path><path d="M1457.09 91.62L1542.67 200.73" stroke="hsl(208.5, 75.3%, 100%)" stroke-width="1.5"></path><path d="M1457.09 91.62L1572.58 -67.71" stroke="hsl(208.5, 75.3%, 100%)" stroke-width="1.5"></path><path d="M1402.15 391.54L1402.15 391.54" stroke="hsl(208.5, 75.3%, 100%)" stroke-width="1.5"></path><path d="M1402.15 391.54L1441.85 546.15" stroke="hsl(208.5, 75.3%, 100%)" stroke-width="1.5"></path><path d="M1402.15 391.54L1572.66 355.38" stroke="hsl(208.5, 75.3%, 100%)" stroke-width="1.5"></path><path d="M1441.85 546.15L1441.85 546.15" stroke="hsl(208.5, 75.3%, 100%)" stroke-width="1.5"></path><path d="M1441.85 546.15L1543.43 552.5" stroke="hsl(208.5, 75.3%, 100%)" stroke-width="1.5"></path><path d="M1441.85 546.15L1417.13 658" stroke="hsl(208.5, 75.3%, 100%)" stroke-width="1.5"></path><path d="M1417.13 658L1417.13 658" stroke="hsl(208.5, 75.3%, 100%)" stroke-width="1.5"></path><path d="M1417.13 658L1543.43 552.5" stroke="hsl(208.5, 75.3%, 100%)" stroke-width="1.5"></path><path d="M1417.13 658L1587.15 696.02" stroke="hsl(208.5, 75.3%, 100%)" stroke-width="1.5"></path><path d="M1572.58 -67.71L1572.58 -67.71" stroke="hsl(208.5, 75.3%, 100%)" stroke-width="1.5"></path><path d="M1572.58 -67.71L1542.67 200.73" stroke="hsl(208.5, 75.3%, 100%)" stroke-width="1.5"></path><path d="M1572.58 -67.71L1292.37 55.43" stroke="hsl(208.5, 75.3%, 100%)" stroke-width="1.5"></path><path d="M1572.58 -67.71L1418.12 215.79" stroke="hsl(208.5, 75.3%, 100%)" stroke-width="1.5"></path><path d="M1542.67 200.73L1542.67 200.73" stroke="hsl(208.5, 75.3%, 100%)" stroke-width="1.5"></path><path d="M1542.67 200.73L1572.66 355.38" stroke="hsl(208.5, 75.3%, 100%)" stroke-width="1.5"></path><path d="M1542.67 200.73L1308.88 222.21" stroke="hsl(208.5, 75.3%, 100%)" stroke-width="1.5"></path><path d="M1542.67 200.73L1402.15 391.54" stroke="hsl(208.5, 75.3%, 100%)" stroke-width="1.5"></path><path d="M1572.66 355.38L1572.66 355.38" stroke="hsl(208.5, 75.3%, 100%)" stroke-width="1.5"></path><path d="M1572.66 355.38L1543.43 552.5" stroke="hsl(208.5, 75.3%, 100%)" stroke-width="1.5"></path><path d="M1572.66 355.38L1418.12 215.79" stroke="hsl(208.5, 75.3%, 100%)" stroke-width="1.5"></path><path d="M1572.66 355.38L1441.85 546.15" stroke="hsl(208.5, 75.3%, 100%)" stroke-width="1.5"></path><path d="M1572.66 355.38L1307.14 343.06" stroke="hsl(208.5, 75.3%, 100%)" stroke-width="1.5"></path><path d="M1543.43 552.5L1543.43 552.5" stroke="hsl(208.5, 75.3%, 100%)" stroke-width="1.5"></path><path d="M1543.43 552.5L1587.15 696.02" stroke="hsl(208.5, 75.3%, 100%)" stroke-width="1.5"></path><path d="M1587.15 696.02L1587.15 696.02" stroke="hsl(208.5, 75.3%, 100%)" stroke-width="1.5"></path><circle r="25" cx="260.73" cy="545.25" fill="url(#SvgjsRadialGradient1013)"></circle><circle r="25" cx="1157.68" cy="543.76" fill="url(#SvgjsRadialGradient1013)"></circle><circle r="25" cx="1307.14" cy="343.06" fill="url(#SvgjsRadialGradient1013)"></circle><circle r="25" cx="1307.73" cy="498.01" fill="url(#SvgjsRadialGradient1013)"></circle><circle r="25" cx="1418.12" cy="215.79" fill="url(#SvgjsRadialGradient1013)"></circle><circle r="5" cx="-79.49" cy="505.3" fill="#dcecfa"></circle><circle r="5" cx="-89.4" cy="690.63" fill="#dcecfa"></circle><circle r="5" cx="207.32" cy="692.15" fill="#dcecfa"></circle><circle r="5" cx="354.01" cy="520.83" fill="#dcecfa"></circle><circle r="5" cx="340.61" cy="669.4" fill="#dcecfa"></circle><circle r="5" cx="527.69" cy="643.71" fill="#dcecfa"></circle><circle r="5" cx="653.11" cy="377.76" fill="#dcecfa"></circle><circle r="5" cx="676.86" cy="510.32" fill="#dcecfa"></circle><circle r="5" cx="695.57" cy="711.47" fill="#dcecfa"></circle><circle r="5" cx="802.28" cy="347.65" fill="#dcecfa"></circle><circle r="5" cx="823.88" cy="511.33" fill="#dcecfa"></circle><circle r="5" cx="789.44" cy="695.1" fill="#dcecfa"></circle><circle r="5" cx="963.93" cy="354.09" fill="#dcecfa"></circle><circle r="5" cx="949.61" cy="548.51" fill="#dcecfa"></circle><circle r="5" cx="1003.88" cy="648.99" fill="#dcecfa"></circle><circle r="5" cx="1104.73" cy="196.75" fill="#dcecfa"></circle><circle r="5" cx="1121.86" cy="386.69" fill="#dcecfa"></circle><circle r="5" cx="1130.67" cy="689.91" fill="#dcecfa"></circle><circle r="5" cx="1246.09" cy="-64.55" fill="#dcecfa"></circle><circle r="5" cx="1292.37" cy="55.43" fill="#dcecfa"></circle><circle r="5" cx="1308.88" cy="222.21" fill="#dcecfa"></circle><circle r="5" cx="1269.2" cy="659.51" fill="#dcecfa"></circle><circle r="5" cx="1442.93" cy="-108.08" fill="#dcecfa"></circle><circle r="5" cx="1457.09" cy="91.62" fill="#dcecfa"></circle><circle r="5" cx="1402.15" cy="391.54" fill="#dcecfa"></circle><circle r="5" cx="1441.85" cy="546.15" fill="#dcecfa"></circle><circle r="5" cx="1417.13" cy="658" fill="#dcecfa"></circle><circle r="5" cx="1572.58" cy="-67.71" fill="#dcecfa"></circle><circle r="5" cx="1542.67" cy="200.73" fill="#dcecfa"></circle><circle r="5" cx="1572.66" cy="355.38" fill="#dcecfa"></circle><circle r="5" cx="1543.43" cy="552.5" fill="#dcecfa"></circle><circle r="5" cx="1587.15" cy="696.02" fill="#dcecfa"></circle></g><defs><mask id="SvgjsMask1012"><rect width="1440" height="560" fill="#ffffff"></rect></mask><radialGradient id="SvgjsRadialGradient1013"><stop stop-color="#ffffff" offset="0.1"></stop><stop stop-color="rgba(184, 216, 245, 1)" offset="0.2"></stop><stop stop-color="rgba(184, 216, 245, 0)" offset="1"></stop></radialGradient></defs></svg>