<svg xmlns="http://www.w3.org/2000/svg" version="1.1" xmlns:xlink="http://www.w3.org/1999/xlink" xmlns:svgjs="http://svgjs.com/svgjs" width="1440" height="560" preserveAspectRatio="none" viewBox="0 0 1440 560"><g mask="url(&quot;#SvgjsMask1419&quot;)" fill="none"><rect width="1440" height="560" x="0" y="0" fill="url(#SvgjsLinearGradient1420)"></rect><path d="M1440 0L1395.41 0L1440 129.73z" fill="rgba(255, 255, 255, .1)"></path><path d="M1395.41 0L1440 129.73L1440 307.92999999999995L1100.64 0z" fill="rgba(255, 255, 255, .075)"></path><path d="M1100.6399999999999 0L1440 307.92999999999995L1440 430.4L529.2399999999999 0z" fill="rgba(255, 255, 255, .05)"></path><path d="M529.24 0L1440 430.4L1440 468.21L417.66 0z" fill="rgba(255, 255, 255, .025)"></path><path d="M0 560L79.06 560L0 324.51z" fill="rgba(0, 0, 0, .1)"></path><path d="M0 324.51L79.06 560L480.79 560L0 263.02z" fill="rgba(0, 0, 0, .075)"></path><path d="M0 263.02L480.79 560L601.59 560L0 128.71999999999997z" fill="rgba(0, 0, 0, .05)"></path><path d="M0 128.71999999999997L601.59 560L1107.4 560L0 97.60999999999997z" fill="rgba(0, 0, 0, .025)"></path></g><defs><mask id="SvgjsMask1419"><rect width="1440" height="560" fill="#ffffff"></rect></mask><linearGradient x1="84.72%" y1="139.29%" x2="15.28%" y2="-39.29%" gradientUnits="userSpaceOnUse" id="SvgjsLinearGradient1420"><stop stop-color="rgba(215, 230, 255, 1)" offset="1"></stop><stop stop-color="rgba(215, 230, 255, 1)" offset="1"></stop></linearGradient></defs></svg>